<svg width="1179" height="220" viewBox="0 0 1179 220" fill="none" xmlns="http://www.w3.org/2000/svg">
<path d="M154.83 185.935C95.9499 204.243 0.849924 185.532 0.0052319 103.995C-0.83946 22.457 100.656 71.0283 100.656 71.0283L154.83 185.935Z" fill="#FFC250"/>
<path d="M28.6332 58.2474C69.7271 51.2057 100.937 105.66 135.467 162.463C169.997 219.266 259.914 241.782 317.366 194.013C374.819 146.244 399.135 62.582 328.592 12.6791C258.05 -37.2239 214.015 76.0716 153.285 79.1858C92.5578 82.3 92.1144 37.1586 28.6332 58.2474Z" fill="#FFD064"/>
<circle cx="322.641" cy="106.534" r="18.0349" fill="#FFE19D"/>
<circle cx="288.074" cy="120.06" r="13.5262" fill="#FFE19D"/>
<circle cx="312.121" cy="138.094" r="10.5204" fill="#FFE19D"/>
<path d="M463.946 185.5V31.5H525.766C541.753 31.5 553.926 35.24 562.286 42.72C570.793 50.0533 575.046 59.5133 575.046 71.1C575.046 80.78 572.406 88.5533 567.126 94.42C561.993 100.14 555.686 104.027 548.206 106.08C557.006 107.84 564.266 112.24 569.986 119.28C575.706 126.173 578.566 134.24 578.566 143.48C578.566 155.653 574.166 165.7 565.366 173.62C556.566 181.54 544.1 185.5 527.966 185.5H463.946ZM492.106 96.18H521.586C529.506 96.18 535.593 94.3467 539.846 90.68C544.1 87.0133 546.226 81.8067 546.226 75.06C546.226 68.6067 544.1 63.5467 539.846 59.88C535.74 56.0667 529.506 54.16 521.146 54.16H492.106V96.18ZM492.106 162.62H523.566C531.926 162.62 538.38 160.713 542.926 156.9C547.62 152.94 549.966 147.44 549.966 140.4C549.966 133.213 547.546 127.567 542.706 123.46C537.866 119.353 531.34 117.3 523.126 117.3H492.106V162.62ZM630.896 188.14C621.509 188.14 613.809 186.673 607.796 183.74C601.782 180.66 597.309 176.627 594.376 171.64C591.442 166.653 589.976 161.153 589.976 155.14C589.976 145.02 593.936 136.807 601.856 130.5C609.776 124.193 621.656 121.04 637.496 121.04H665.216V118.4C665.216 110.92 663.089 105.42 658.836 101.9C654.582 98.38 649.302 96.62 642.996 96.62C637.276 96.62 632.289 98.0133 628.036 100.8C623.782 103.44 621.142 107.4 620.116 112.68H592.616C593.349 104.76 595.989 97.8667 600.536 92C605.229 86.1333 611.242 81.66 618.576 78.58C625.909 75.3533 634.122 73.74 643.216 73.74C658.762 73.74 671.009 77.6267 679.956 85.4C688.902 93.1733 693.376 104.173 693.376 118.4V185.5H669.396L666.756 167.9C663.529 173.767 658.982 178.607 653.116 182.42C647.396 186.233 639.989 188.14 630.896 188.14ZM637.276 166.14C645.342 166.14 651.576 163.5 655.976 158.22C660.522 152.94 663.382 146.413 664.556 138.64H640.576C633.096 138.64 627.742 140.033 624.516 142.82C621.289 145.46 619.676 148.76 619.676 152.72C619.676 156.973 621.289 160.273 624.516 162.62C627.742 164.967 631.996 166.14 637.276 166.14ZM758.564 185.5C747.124 185.5 737.958 182.713 731.064 177.14C724.171 171.567 720.724 161.667 720.724 147.44V99.92H702.024V76.38H720.724L724.024 47.12H748.884V76.38H778.364V99.92H748.884V147.66C748.884 152.94 749.984 156.607 752.184 158.66C754.531 160.567 758.491 161.52 764.064 161.52H777.704V185.5H758.564ZM831.362 188.14C821.975 188.14 814.275 186.673 808.262 183.74C802.249 180.66 797.775 176.627 794.842 171.64C791.909 166.653 790.442 161.153 790.442 155.14C790.442 145.02 794.402 136.807 802.322 130.5C810.242 124.193 822.122 121.04 837.962 121.04H865.682V118.4C865.682 110.92 863.555 105.42 859.302 101.9C855.049 98.38 849.769 96.62 843.462 96.62C837.742 96.62 832.755 98.0133 828.502 100.8C824.249 103.44 821.609 107.4 820.582 112.68H793.082C793.815 104.76 796.455 97.8667 801.002 92C805.695 86.1333 811.709 81.66 819.042 78.58C826.375 75.3533 834.589 73.74 843.682 73.74C859.229 73.74 871.475 77.6267 880.422 85.4C889.369 93.1733 893.842 104.173 893.842 118.4V185.5H869.862L867.222 167.9C863.995 173.767 859.449 178.607 853.582 182.42C847.862 186.233 840.455 188.14 831.362 188.14ZM837.742 166.14C845.809 166.14 852.042 163.5 856.442 158.22C860.989 152.94 863.849 146.413 865.022 138.64H841.042C833.562 138.64 828.209 140.033 824.982 142.82C821.755 145.46 820.142 148.76 820.142 152.72C820.142 156.973 821.755 160.273 824.982 162.62C828.209 164.967 832.462 166.14 837.742 166.14ZM976.595 188.14C968.381 188.14 961.195 186.6 955.035 183.52C948.875 180.44 943.888 176.113 940.075 170.54L936.995 185.5H911.915V27.1H940.075V92C943.595 87.16 948.215 82.9067 953.935 79.24C959.801 75.5733 967.355 73.74 976.595 73.74C986.861 73.74 996.028 76.2333 1004.09 81.22C1012.16 86.2067 1018.54 93.0267 1023.23 101.68C1027.93 110.333 1030.27 120.16 1030.27 131.16C1030.27 142.16 1027.93 151.987 1023.23 160.64C1018.54 169.147 1012.16 175.893 1004.09 180.88C996.028 185.72 986.861 188.14 976.595 188.14ZM970.655 163.5C979.601 163.5 987.008 160.493 992.875 154.48C998.741 148.467 1001.67 140.693 1001.67 131.16C1001.67 121.627 998.741 113.78 992.875 107.62C987.008 101.46 979.601 98.38 970.655 98.38C961.561 98.38 954.081 101.46 948.215 107.62C942.495 113.633 939.635 121.407 939.635 130.94C939.635 140.473 942.495 148.32 948.215 154.48C954.081 160.493 961.561 163.5 970.655 163.5ZM1061.81 59.44C1056.68 59.44 1052.42 57.9 1049.05 54.82C1045.82 51.74 1044.21 47.8533 1044.21 43.16C1044.21 38.4667 1045.82 34.6533 1049.05 31.72C1052.42 28.64 1056.68 27.1 1061.81 27.1C1066.94 27.1 1071.12 28.64 1074.35 31.72C1077.72 34.6533 1079.41 38.4667 1079.41 43.16C1079.41 47.8533 1077.72 51.74 1074.35 54.82C1071.12 57.9 1066.94 59.44 1061.81 59.44ZM1047.73 185.5V76.38H1075.89V185.5H1047.73ZM1145.1 185.5C1133.66 185.5 1124.5 182.713 1117.6 177.14C1110.71 171.567 1107.26 161.667 1107.26 147.44V99.92H1088.56V76.38H1107.26L1110.56 47.12H1135.42V76.38H1164.9V99.92H1135.42V147.66C1135.42 152.94 1136.52 156.607 1138.72 158.66C1141.07 160.567 1145.03 161.52 1150.6 161.52H1164.24V185.5H1145.1Z" fill="white"/>
</svg>
